<svg xmlns="http://www.w3.org/2000/svg" viewBox="0 0 32 32" width="24" height="24" style="fill: rgba(255, 255, 255, 0.27);border-color: rgba(0,0,0,0);border-width: bpx;border-style: undefined" filter="none"><path d="M15.111 15.111h-6.222c-0.491 0-0.889 0.398-0.889 0.889s0.398 0.889 0.889 0.889h6.222v6.222c0 0.491 0.398 0.889 0.889 0.889s0.889-0.398 0.889-0.889v-6.222h6.222c0.491 0 0.889-0.398 0.889-0.889s-0.398-0.889-0.889-0.889h-6.222v-6.222c0-0.491-0.398-0.889-0.889-0.889s-0.889 0.398-0.889 0.889v6.222zM5.333 3.556h21.333c0.982 0 1.778 0.796 1.778 1.778v21.333c0 0.982-0.796 1.778-1.778 1.778h-21.333c-0.982 0-1.778-0.796-1.778-1.778v-21.333c0-0.982 0.796-1.778 1.778-1.778z"></path></svg>