<svg xmlns="http://www.w3.org/2000/svg" viewBox="0 0 32 32" width="17" height="17" style="fill: rgba(255, 255, 255, 0.45);border-color: rgba(0,0,0,0);border-width: bpx;border-style: undefined" filter="none"><path d="M3.429 29.714h5.143v-5.143h-5.143v5.143zM9.714 29.714h5.714v-5.143h-5.714v5.143zM3.429 23.429h5.143v-5.714h-5.143v5.714zM9.714 23.429h5.714v-5.714h-5.714v5.714zM3.429 16.571h5.143v-5.143h-5.143v5.143zM16.571 29.714h5.714v-5.143h-5.714v5.143zM9.714 16.571h5.714v-5.143h-5.714v5.143zM23.429 29.714h5.143v-5.143h-5.143v5.143zM16.571 23.429h5.714v-5.714h-5.714v5.714zM10.286 8v-5.143q0-0.232-0.17-0.402t-0.402-0.17h-1.143q-0.232 0-0.402 0.17t-0.17 0.402v5.143q0 0.232 0.17 0.402t0.402 0.17h1.143q0.232 0 0.402-0.17t0.17-0.402zM23.429 23.429h5.143v-5.714h-5.143v5.714zM16.571 16.571h5.714v-5.143h-5.714v5.143zM23.429 16.571h5.143v-5.143h-5.143v5.143zM24 8v-5.143q0-0.232-0.17-0.402t-0.402-0.17h-1.143q-0.232 0-0.402 0.17t-0.17 0.402v5.143q0 0.232 0.17 0.402t0.402 0.17h1.143q0.232 0 0.402-0.17t0.17-0.402zM30.857 6.857v22.857q0 0.929-0.679 1.607t-1.607 0.679h-25.143q-0.929 0-1.607-0.679t-0.679-1.607v-22.857q0-0.929 0.679-1.607t1.607-0.679h2.286v-1.714q0-1.179 0.839-2.018t2.018-0.839h1.143q1.179 0 2.018 0.839t0.839 2.018v1.714h6.857v-1.714q0-1.179 0.839-2.018t2.018-0.839h1.143q1.179 0 2.018 0.839t0.839 2.018v1.714h2.286q0.929 0 1.607 0.679t0.679 1.607z"></path></svg>