<svg xmlns="http://www.w3.org/2000/svg" viewBox="0 0 32 32" width="15" height="15" style="fill: rgba(255, 255, 255, 0.71);border-color: rgba(0,0,0,0);border-width: bpx;border-style: undefined" filter="none"><path d="M16 1.778c7.855 0 14.222 6.367 14.222 14.222s-6.367 14.222-14.222 14.222-14.222-6.367-14.222-14.222 6.367-14.222 14.222-14.222zM21.646 10.35c-0.347-0.347-0.91-0.347-1.257 0l-4.4 4.4-4.4-4.4c-0.347-0.347-0.91-0.347-1.257 0s-0.347 0.91 0 1.257l4.4 4.4-4.4 4.4c-0.347 0.347-0.347 0.91 0 1.257s0.91 0.347 1.257 0l4.4-4.4 4.4 4.4c0.347 0.347 0.91 0.347 1.257 0s0.347-0.91 0-1.257l-4.4-4.4 4.4-4.4c0.347-0.347 0.347-0.91 0-1.257z"></path></svg>