<svg xmlns="http://www.w3.org/2000/svg" viewBox="0 0 32 32" width="15" height="15" style="fill: rgba(128, 152, 153, 1);border-color: rgba(0,0,0,0);border-width: bpx;border-style: undefined" filter="none"><path d="M10.667 12.444c0 2.945 2.388 5.333 5.333 5.333s5.333-2.388 5.333-5.333c0-0.491-0.398-0.889-0.889-0.889s-0.889 0.398-0.889 0.889c0 1.964-1.592 3.556-3.556 3.556s-3.556-1.592-3.556-3.556c0-0.491-0.398-0.889-0.889-0.889s-0.889 0.398-0.889 0.889zM7.111 1.778h17.778c0.982 0 1.778 0.796 1.778 1.778v24.837c0 0.982-0.796 1.778-1.778 1.778 0 0 0 0 0 0-0.427 0-0.819-0.151-1.126-0.402l0.003 0.003-6.64-5.41c-0.654-0.533-1.592-0.533-2.245-0l-6.647 5.412c-0.761 0.62-1.881 0.505-2.501-0.256-0.249-0.303-0.399-0.695-0.399-1.122 0 0 0-0 0-0v0-24.838c0-0.982 0.796-1.778 1.778-1.778z"></path></svg>