<svg xmlns="http://www.w3.org/2000/svg" viewBox="0 0 32 32" width="24" height="24" style="fill: rgba(255, 255, 255, 0.27);border-color: rgba(0,0,0,0);border-width: bpx;border-style: undefined" filter="none"><path d="M4.512 13.919c0 0.001-0.001 0.001-0.001 0.001h-0.317c-0.001 0-0.001-0.001-0.001-0.001v0-0.319h0.32v0.319zM4.56 13.568h-0.416c-0.009 0-0.016 0.007-0.016 0.016s0.007 0.016 0.016 0.016v0h0.016v0.319c0 0.018 0.015 0.033 0.033 0.033h0.317c0.018 0 0.033-0.015 0.033-0.033v-0.319h0.016c0.009 0 0.016-0.007 0.016-0.016s-0.007-0.016-0.016-0.016v0zM4.432 13.856c0.009 0 0.016-0.007 0.016-0.016v0-0.16c0-0.009-0.007-0.016-0.016-0.016s-0.016 0.007-0.016 0.016v0 0.16c0 0.009 0.007 0.016 0.016 0.016v0zM4.272 13.856c0.009 0 0.016-0.007 0.016-0.016v0-0.16c0-0.009-0.007-0.016-0.016-0.016s-0.016 0.007-0.016 0.016v0 0.16c0 0.009 0.007 0.016 0.016 0.016v0zM4.352 13.856c0.009 0 0.016-0.007 0.016-0.016v0-0.16c0-0.009-0.007-0.016-0.016-0.016s-0.016 0.007-0.016 0.016v0 0.16c0 0.009 0.007 0.016 0.016 0.016v0zM4.24 13.536h0.224c0.009 0 0.016-0.007 0.016-0.016s-0.007-0.016-0.016-0.016v0h-0.224c-0.009 0-0.016 0.007-0.016 0.016s0.007 0.016 0.016 0.016v0z"></path><path d="M24.889 26.587c0 0 0 0 0 0 0 0.044-0.036 0.080-0.080 0.080-0 0-0 0-0 0h-17.618c-0 0-0 0-0 0-0.044 0-0.080-0.036-0.080-0.080 0-0 0-0 0-0v0-17.698h17.778v17.698zM27.556 7.111h-23.111c-0.491 0-0.889 0.398-0.889 0.889s0.398 0.889 0.889 0.889h0.889v17.698c0 1.026 0.832 1.858 1.858 1.858h17.618c1.026 0 1.858-0.832 1.858-1.858v-17.698h0.889c0.491 0 0.889-0.398 0.889-0.889s-0.398-0.889-0.889-0.889zM20.444 23.111c0.491 0 0.889-0.398 0.889-0.889v-8.889c0-0.491-0.398-0.889-0.889-0.889s-0.889 0.398-0.889 0.889v8.889c0 0.491 0.398 0.889 0.889 0.889zM11.556 23.111c0.491 0 0.889-0.398 0.889-0.889v-8.889c0-0.491-0.398-0.889-0.889-0.889s-0.889 0.398-0.889 0.889v8.889c0 0.491 0.398 0.889 0.889 0.889zM16 23.111c0.491 0 0.889-0.398 0.889-0.889v-8.889c0-0.491-0.398-0.889-0.889-0.889s-0.889 0.398-0.889 0.889v8.889c0 0.491 0.398 0.889 0.889 0.889zM9.778 5.333h12.444c0.491 0 0.889-0.398 0.889-0.889s-0.398-0.889-0.889-0.889h-12.444c-0.491 0-0.889 0.398-0.889 0.889s0.398 0.889 0.889 0.889z"></path></svg>