<svg xmlns="http://www.w3.org/2000/svg" viewBox="0 0 32 32" width="19" height="19" style="fill: rgba(128, 152, 153, 1);border-color: rgba(0,0,0,0);border-width: bpx;border-style: undefined" filter="none"><path d="M28.444 5.333c0.981 0 1.778 0.796 1.778 1.778v17.778c0 0.981-0.796 1.778-1.778 1.778h-24.889c-0.981 0-1.778-0.796-1.778-1.778v-17.778c0-0.981 0.796-1.778 1.778-1.778zM28.444 7.111h-24.889v17.778h24.889v-17.778zM10.657 17.185c0.736 0 1.333-0.597 1.333-1.333s-0.597-1.333-1.333-1.333-1.333 0.597-1.333 1.333c0 0.736 0.597 1.333 1.333 1.333zM15.991 17.185c0.736 0 1.333-0.597 1.333-1.333s-0.597-1.333-1.333-1.333-1.333 0.597-1.333 1.333c0 0.736 0.597 1.333 1.333 1.333zM21.324 17.185c0.736 0 1.333-0.597 1.333-1.333s-0.597-1.333-1.333-1.333c-0.736 0-1.333 0.597-1.333 1.333s0.597 1.333 1.333 1.333z"></path></svg>