<svg xmlns="http://www.w3.org/2000/svg" viewBox="0 0 32 32" width="20" height="20" style="fill: rgba(96, 125, 139, 1);border-color: rgba(0,0,0,0);border-width: bpx;border-style: undefined" filter="none"><path d="M12.889 20.953c4.418 0 8-3.582 8-8s-3.582-8-8-8-8 3.582-8 8 3.582 8 8 8zM20.447 19.158l7.99 7.99c0.347 0.347 0.347 0.91 0 1.257s-0.91 0.347-1.257 0l-7.981-7.981c-1.703 1.44-3.905 2.308-6.309 2.308-5.4 0-9.778-4.378-9.778-9.778s4.378-9.778 9.778-9.778c5.4 0 9.778 4.378 9.778 9.778 0 2.355-0.833 4.516-2.22 6.204z"></path></svg>